<?xml version="1.0" encoding="UTF-8" standalone="no"?>
<!DOCTYPE svg PUBLIC "-//W3C//DTD SVG 1.1//EN" "http://www.w3.org/Graphics/SVG/1.1/DTD/svg11.dtd">
<svg width="100%" height="100%" viewBox="0 0 627 627" version="1.1" xmlns="http://www.w3.org/2000/svg" xmlnsXlink="http://www.w3.org/1999/xlink" xmlSpace="preserve" xmlnsSerif="http://www.serif.com/" style="fill-rule:evenodd;clip-rule:evenodd;">
    <g id="logo.svg" transform="matrix(1,0,0,1,467,265)">
        <g transform="matrix(1,0,0,1,-156,-52)">
            <clipPath id="_clip1">
                <rect x="0" y="0" width="312" height="104"/>
            </clipPath>
            <g clip-path="url(#_clip1)">
                <g>
                    <path d="M100.168,47.997C98.582,41.886 93.801,37.898 85.313,37.898C76.44,37.898 70.151,42.577 70.151,49.531C70.151,55.105 73.526,58.813 80.889,60.449L87.537,61.906C91.321,62.75 93.085,64.438 93.085,66.892C93.085,69.935 89.838,72.313 84.827,72.313C80.25,72.313 77.31,70.344 76.389,66.483L69,67.608C70.278,74.563 76.057,78.474 84.878,78.474C94.364,78.474 100.935,73.438 100.935,66.33C100.935,60.781 97.406,57.355 90.196,55.693L83.957,54.261C79.636,53.239 77.77,51.781 77.796,49.122C77.77,46.105 81.043,43.957 85.389,43.957C90.145,43.957 92.344,46.591 93.239,49.224L100.168,47.997Z" style="fill:rgb(231,233,237);fill-rule:nonzero;"/>
                    <path d="M127.673,38.409L119.619,38.409L119.619,29L111.974,29L111.974,38.409L106.221,38.409L106.221,44.545L111.974,44.545L111.974,67.736C111.948,74.869 117.394,78.321 123.428,78.193C125.857,78.168 127.494,77.707 128.388,77.375L127.008,71.06C126.496,71.162 125.55,71.392 124.323,71.392C121.843,71.392 119.619,70.574 119.619,66.151L119.619,44.545L127.673,44.545L127.673,38.409Z" style="fill:rgb(231,233,237);fill-rule:nonzero;"/>
                    <path d="M147.558,78.551C154.053,78.551 157.709,75.253 159.166,72.313L159.473,72.313L159.473,77.682L166.939,77.682L166.939,51.602C166.939,40.173 157.939,37.898 151.7,37.898C144.592,37.898 138.047,40.761 135.49,47.92L142.675,49.557C143.8,46.77 146.663,44.085 151.803,44.085C156.737,44.085 159.268,46.668 159.268,51.117L159.268,51.295C159.268,54.082 156.405,54.031 149.348,54.849C141.908,55.719 134.288,57.662 134.288,66.585C134.288,74.307 140.092,78.551 147.558,78.551ZM149.22,72.415C144.899,72.415 141.78,70.472 141.78,66.688C141.78,62.597 145.411,61.139 149.834,60.551C152.314,60.219 158.195,59.554 159.294,58.455L159.294,63.517C159.294,68.171 155.587,72.415 149.22,72.415Z" style="fill:rgb(231,233,237);fill-rule:nonzero;"/>
                    <path d="M177.121,77.682L184.766,77.682L184.766,53.699C184.766,48.56 188.729,44.852 194.15,44.852C195.735,44.852 197.525,45.134 198.138,45.313L198.138,38C197.371,37.898 195.863,37.821 194.891,37.821C190.289,37.821 186.352,40.429 184.92,44.648L184.511,44.648L184.511,38.409L177.121,38.409L177.121,77.682Z" style="fill:rgb(231,233,237);fill-rule:nonzero;"/>
                    <path d="M225.407,38.409L217.353,38.409L217.353,29L209.708,29L209.708,38.409L203.955,38.409L203.955,44.545L209.708,44.545L209.708,67.736C209.683,74.869 215.129,78.321 221.163,78.193C223.592,78.168 225.228,77.707 226.123,77.375L224.742,71.06C224.231,71.162 223.285,71.392 222.058,71.392C219.577,71.392 217.353,70.574 217.353,66.151L217.353,44.545L225.407,44.545L225.407,38.409Z" style="fill:rgb(231,233,237);fill-rule:nonzero;"/>
                    <path d="M282.206,44.611C281.7,44.443 281.194,44.283 280.688,44.133C280.772,43.786 280.847,43.44 280.922,43.093C282.075,37.505 281.316,33.015 278.756,31.533C276.291,30.118 272.269,31.59 268.2,35.133C267.797,35.48 267.403,35.846 267.028,36.211C266.775,35.968 266.512,35.724 266.25,35.49C261.984,31.702 257.709,30.108 255.15,31.599C252.694,33.024 251.962,37.252 252.994,42.539C253.097,43.065 253.209,43.58 253.341,44.105C252.741,44.274 252.15,44.461 251.597,44.658C246.591,46.393 243,49.13 243,51.961C243,54.886 246.825,57.821 252.028,59.602C252.45,59.743 252.872,59.883 253.303,60.005C253.163,60.568 253.041,61.121 252.928,61.693C251.944,66.896 252.713,71.021 255.169,72.436C257.7,73.899 261.956,72.399 266.1,68.771C266.428,68.48 266.756,68.18 267.084,67.861C267.497,68.265 267.928,68.649 268.359,69.024C272.372,72.474 276.338,73.871 278.784,72.455C281.316,70.993 282.141,66.558 281.072,61.158C280.988,60.746 280.894,60.324 280.791,59.893C281.091,59.808 281.381,59.715 281.672,59.621C287.081,57.83 291,54.933 291,51.961C291,49.121 287.306,46.365 282.206,44.611ZM269.522,36.652C273.009,33.615 276.263,32.424 277.744,33.277C279.328,34.186 279.937,37.861 278.944,42.69C278.878,43.008 278.813,43.318 278.728,43.627C276.647,43.158 274.537,42.821 272.419,42.633C271.2,40.89 269.869,39.221 268.425,37.655C268.791,37.308 269.147,36.98 269.522,36.652ZM258.675,56.827C259.153,57.643 259.641,58.458 260.156,59.255C258.694,59.096 257.241,58.861 255.806,58.552C256.219,57.202 256.734,55.805 257.334,54.38C257.766,55.205 258.206,56.021 258.675,56.827ZM255.834,45.549C257.184,45.249 258.619,45.005 260.109,44.818C259.612,45.596 259.125,46.393 258.666,47.199C258.206,47.996 257.756,48.811 257.334,49.636C256.744,48.24 256.247,46.871 255.834,45.549ZM258.403,52.008C259.022,50.715 259.697,49.449 260.409,48.202C261.122,46.955 261.891,45.746 262.697,44.555C264.103,44.452 265.537,44.396 267,44.396C268.463,44.396 269.906,44.452 271.303,44.555C272.1,45.736 272.859,46.946 273.581,48.183C274.303,49.421 274.978,50.686 275.616,51.971C274.987,53.265 274.312,54.539 273.591,55.796C272.878,57.043 272.119,58.252 271.322,59.452C269.925,59.555 268.472,59.602 267,59.602C265.528,59.602 264.103,59.555 262.725,59.471C261.909,58.28 261.141,57.061 260.419,55.815C259.697,54.568 259.031,53.302 258.403,52.008ZM275.334,56.808C275.812,55.983 276.263,55.149 276.703,54.305C277.303,55.664 277.828,57.043 278.287,58.458C276.834,58.786 275.362,59.039 273.881,59.208C274.387,58.421 274.866,57.615 275.334,56.808ZM276.684,49.636C276.244,48.811 275.794,47.986 275.325,47.18C274.866,46.383 274.388,45.596 273.891,44.818C275.4,45.005 276.844,45.258 278.194,45.568C277.762,46.955 277.256,48.305 276.684,49.636ZM267.019,39.09C268.003,40.158 268.931,41.283 269.794,42.446C267.937,42.361 266.072,42.361 264.216,42.446C265.134,41.236 266.081,40.111 267.019,39.09ZM256.144,33.343C257.719,32.424 261.216,33.736 264.9,36.999C265.134,37.205 265.369,37.43 265.612,37.655C264.159,39.221 262.819,40.89 261.591,42.633C259.472,42.821 257.372,43.149 255.291,43.608C255.169,43.13 255.066,42.643 254.962,42.155C254.081,37.618 254.662,34.196 256.144,33.343ZM253.847,58.055C253.453,57.943 253.069,57.821 252.684,57.69C250.688,57.061 248.419,56.068 246.778,54.765C245.831,54.108 245.194,53.096 245.016,51.961C245.016,50.246 247.978,48.052 252.253,46.561C252.787,46.374 253.331,46.205 253.875,46.046C254.513,48.08 255.281,50.077 256.172,52.008C255.272,53.968 254.494,55.993 253.847,58.055ZM264.778,67.243C263.231,68.658 261.441,69.783 259.491,70.552C258.45,71.049 257.25,71.096 256.181,70.674C254.691,69.811 254.072,66.502 254.916,62.049C255.019,61.524 255.131,60.999 255.263,60.483C257.363,60.933 259.481,61.243 261.628,61.402C262.866,63.155 264.225,64.833 265.678,66.408C265.378,66.699 265.078,66.98 264.778,67.243ZM267.075,64.965C266.119,63.933 265.162,62.789 264.234,61.561C265.134,61.599 266.062,61.618 267,61.618C267.966,61.618 268.912,61.599 269.85,61.552C268.987,62.743 268.059,63.877 267.075,64.965ZM279.328,67.777C279.244,68.921 278.681,69.99 277.781,70.711C276.291,71.574 273.113,70.449 269.681,67.505C269.288,67.168 268.894,66.802 268.491,66.427C269.925,64.843 271.247,63.164 272.447,61.402C274.594,61.224 276.731,60.896 278.841,60.418C278.934,60.802 279.019,61.186 279.094,61.561C279.553,63.586 279.628,65.696 279.328,67.777ZM281.034,57.699C280.772,57.783 280.509,57.868 280.238,57.943C279.581,55.899 278.775,53.902 277.847,51.961C278.747,50.049 279.506,48.08 280.144,46.065C280.631,46.205 281.1,46.355 281.55,46.505C285.919,48.005 288.984,50.236 288.984,51.943C288.984,53.78 285.713,56.152 281.034,57.699ZM267,56.293C269.372,56.293 271.294,54.371 271.294,51.999C271.294,49.627 269.372,47.705 267,47.705C264.628,47.705 262.706,49.627 262.706,51.999C262.706,54.371 264.628,56.293 267,56.293Z" style="fill:rgb(231,233,237);fill-rule:nonzero;"/>
                    <path d="M295,2L65,2C56.716,2 50,8.716 50,17L50,87C50,95.284 56.716,102 65,102L295,102C303.284,102 310,95.284 310,87L310,17C310,8.716 303.284,2 295,2Z" style="fill:none;fill-rule:nonzero;stroke:rgb(231,233,237);stroke-width:4px;"/>
                    <path d="M0,102C0,100.895 0.895,100 2,100L36,100C37.105,100 41,101.395 41,102.5C41,103.605 49.105,104 48,104L2,104C0.895,104 0,103.105 0,102Z" style="fill:rgb(231,233,237);fill-rule:nonzero;"/>
                    <path d="M48,88C48,94.627 42.627,100 36,100C36,102 36,102 36,104L66,104C66,102 64,101 60,100L56,100L56,97L52,97L52,88C50,88 50,88 48,88Z" style="fill:rgb(231,233,237);fill-rule:nonzero;"/>
                </g>
            </g>
        </g>
    </g>
    <g id="logo.svg1" serifId="logo.svg" transform="matrix(6.12323e-17,-1,1,6.12323e-17,263,161)">
        <g transform="matrix(1,0,0,1,-156,-52)">
            <clipPath id="_clip2">
                <rect x="0" y="0" width="312" height="104"/>
            </clipPath>
            <g clip-path="url(#_clip2)">
                <g>
                    <path d="M100.168,47.997C98.582,41.886 93.801,37.898 85.313,37.898C76.44,37.898 70.151,42.577 70.151,49.531C70.151,55.105 73.526,58.813 80.889,60.449L87.537,61.906C91.321,62.75 93.085,64.438 93.085,66.892C93.085,69.935 89.838,72.313 84.827,72.313C80.25,72.313 77.31,70.344 76.389,66.483L69,67.608C70.278,74.563 76.057,78.474 84.878,78.474C94.364,78.474 100.935,73.438 100.935,66.33C100.935,60.781 97.406,57.355 90.196,55.693L83.957,54.261C79.636,53.239 77.77,51.781 77.796,49.122C77.77,46.105 81.043,43.957 85.389,43.957C90.145,43.957 92.344,46.591 93.239,49.224L100.168,47.997Z" style="fill:rgb(231,233,237);fill-rule:nonzero;"/>
                    <path d="M127.673,38.409L119.619,38.409L119.619,29L111.974,29L111.974,38.409L106.221,38.409L106.221,44.545L111.974,44.545L111.974,67.736C111.948,74.869 117.394,78.321 123.428,78.193C125.857,78.168 127.494,77.707 128.388,77.375L127.008,71.06C126.496,71.162 125.55,71.392 124.323,71.392C121.843,71.392 119.619,70.574 119.619,66.151L119.619,44.545L127.673,44.545L127.673,38.409Z" style="fill:rgb(231,233,237);fill-rule:nonzero;"/>
                    <path d="M147.558,78.551C154.053,78.551 157.709,75.253 159.166,72.313L159.473,72.313L159.473,77.682L166.939,77.682L166.939,51.602C166.939,40.173 157.939,37.898 151.7,37.898C144.592,37.898 138.047,40.761 135.49,47.92L142.675,49.557C143.8,46.77 146.663,44.085 151.803,44.085C156.737,44.085 159.268,46.668 159.268,51.117L159.268,51.295C159.268,54.082 156.405,54.031 149.348,54.849C141.908,55.719 134.288,57.662 134.288,66.585C134.288,74.307 140.092,78.551 147.558,78.551ZM149.22,72.415C144.899,72.415 141.78,70.472 141.78,66.688C141.78,62.597 145.411,61.139 149.834,60.551C152.314,60.219 158.195,59.554 159.294,58.455L159.294,63.517C159.294,68.171 155.587,72.415 149.22,72.415Z" style="fill:rgb(231,233,237);fill-rule:nonzero;"/>
                    <path d="M177.121,77.682L184.766,77.682L184.766,53.699C184.766,48.56 188.729,44.852 194.15,44.852C195.735,44.852 197.525,45.134 198.138,45.313L198.138,38C197.371,37.898 195.863,37.821 194.891,37.821C190.289,37.821 186.352,40.429 184.92,44.648L184.511,44.648L184.511,38.409L177.121,38.409L177.121,77.682Z" style="fill:rgb(231,233,237);fill-rule:nonzero;"/>
                    <path d="M225.407,38.409L217.353,38.409L217.353,29L209.708,29L209.708,38.409L203.955,38.409L203.955,44.545L209.708,44.545L209.708,67.736C209.683,74.869 215.129,78.321 221.163,78.193C223.592,78.168 225.228,77.707 226.123,77.375L224.742,71.06C224.231,71.162 223.285,71.392 222.058,71.392C219.577,71.392 217.353,70.574 217.353,66.151L217.353,44.545L225.407,44.545L225.407,38.409Z" style="fill:rgb(231,233,237);fill-rule:nonzero;"/>
                    <path d="M282.206,44.611C281.7,44.443 281.194,44.283 280.688,44.133C280.772,43.786 280.847,43.44 280.922,43.093C282.075,37.505 281.316,33.015 278.756,31.533C276.291,30.118 272.269,31.59 268.2,35.133C267.797,35.48 267.403,35.846 267.028,36.211C266.775,35.968 266.512,35.724 266.25,35.49C261.984,31.702 257.709,30.108 255.15,31.599C252.694,33.024 251.962,37.252 252.994,42.539C253.097,43.065 253.209,43.58 253.341,44.105C252.741,44.274 252.15,44.461 251.597,44.658C246.591,46.393 243,49.13 243,51.961C243,54.886 246.825,57.821 252.028,59.602C252.45,59.743 252.872,59.883 253.303,60.005C253.163,60.568 253.041,61.121 252.928,61.693C251.944,66.896 252.713,71.021 255.169,72.436C257.7,73.899 261.956,72.399 266.1,68.771C266.428,68.48 266.756,68.18 267.084,67.861C267.497,68.265 267.928,68.649 268.359,69.024C272.372,72.474 276.338,73.871 278.784,72.455C281.316,70.993 282.141,66.558 281.072,61.158C280.988,60.746 280.894,60.324 280.791,59.893C281.091,59.808 281.381,59.715 281.672,59.621C287.081,57.83 291,54.933 291,51.961C291,49.121 287.306,46.365 282.206,44.611ZM269.522,36.652C273.009,33.615 276.263,32.424 277.744,33.277C279.328,34.186 279.937,37.861 278.944,42.69C278.878,43.008 278.813,43.318 278.728,43.627C276.647,43.158 274.537,42.821 272.419,42.633C271.2,40.89 269.869,39.221 268.425,37.655C268.791,37.308 269.147,36.98 269.522,36.652ZM258.675,56.827C259.153,57.643 259.641,58.458 260.156,59.255C258.694,59.096 257.241,58.861 255.806,58.552C256.219,57.202 256.734,55.805 257.334,54.38C257.766,55.205 258.206,56.021 258.675,56.827ZM255.834,45.549C257.184,45.249 258.619,45.005 260.109,44.818C259.612,45.596 259.125,46.393 258.666,47.199C258.206,47.996 257.756,48.811 257.334,49.636C256.744,48.24 256.247,46.871 255.834,45.549ZM258.403,52.008C259.022,50.715 259.697,49.449 260.409,48.202C261.122,46.955 261.891,45.746 262.697,44.555C264.103,44.452 265.537,44.396 267,44.396C268.463,44.396 269.906,44.452 271.303,44.555C272.1,45.736 272.859,46.946 273.581,48.183C274.303,49.421 274.978,50.686 275.616,51.971C274.987,53.265 274.312,54.539 273.591,55.796C272.878,57.043 272.119,58.252 271.322,59.452C269.925,59.555 268.472,59.602 267,59.602C265.528,59.602 264.103,59.555 262.725,59.471C261.909,58.28 261.141,57.061 260.419,55.815C259.697,54.568 259.031,53.302 258.403,52.008ZM275.334,56.808C275.812,55.983 276.263,55.149 276.703,54.305C277.303,55.664 277.828,57.043 278.287,58.458C276.834,58.786 275.362,59.039 273.881,59.208C274.387,58.421 274.866,57.615 275.334,56.808ZM276.684,49.636C276.244,48.811 275.794,47.986 275.325,47.18C274.866,46.383 274.388,45.596 273.891,44.818C275.4,45.005 276.844,45.258 278.194,45.568C277.762,46.955 277.256,48.305 276.684,49.636ZM267.019,39.09C268.003,40.158 268.931,41.283 269.794,42.446C267.937,42.361 266.072,42.361 264.216,42.446C265.134,41.236 266.081,40.111 267.019,39.09ZM256.144,33.343C257.719,32.424 261.216,33.736 264.9,36.999C265.134,37.205 265.369,37.43 265.612,37.655C264.159,39.221 262.819,40.89 261.591,42.633C259.472,42.821 257.372,43.149 255.291,43.608C255.169,43.13 255.066,42.643 254.962,42.155C254.081,37.618 254.662,34.196 256.144,33.343ZM253.847,58.055C253.453,57.943 253.069,57.821 252.684,57.69C250.688,57.061 248.419,56.068 246.778,54.765C245.831,54.108 245.194,53.096 245.016,51.961C245.016,50.246 247.978,48.052 252.253,46.561C252.787,46.374 253.331,46.205 253.875,46.046C254.513,48.08 255.281,50.077 256.172,52.008C255.272,53.968 254.494,55.993 253.847,58.055ZM264.778,67.243C263.231,68.658 261.441,69.783 259.491,70.552C258.45,71.049 257.25,71.096 256.181,70.674C254.691,69.811 254.072,66.502 254.916,62.049C255.019,61.524 255.131,60.999 255.263,60.483C257.363,60.933 259.481,61.243 261.628,61.402C262.866,63.155 264.225,64.833 265.678,66.408C265.378,66.699 265.078,66.98 264.778,67.243ZM267.075,64.965C266.119,63.933 265.162,62.789 264.234,61.561C265.134,61.599 266.062,61.618 267,61.618C267.966,61.618 268.912,61.599 269.85,61.552C268.987,62.743 268.059,63.877 267.075,64.965ZM279.328,67.777C279.244,68.921 278.681,69.99 277.781,70.711C276.291,71.574 273.113,70.449 269.681,67.505C269.288,67.168 268.894,66.802 268.491,66.427C269.925,64.843 271.247,63.164 272.447,61.402C274.594,61.224 276.731,60.896 278.841,60.418C278.934,60.802 279.019,61.186 279.094,61.561C279.553,63.586 279.628,65.696 279.328,67.777ZM281.034,57.699C280.772,57.783 280.509,57.868 280.238,57.943C279.581,55.899 278.775,53.902 277.847,51.961C278.747,50.049 279.506,48.08 280.144,46.065C280.631,46.205 281.1,46.355 281.55,46.505C285.919,48.005 288.984,50.236 288.984,51.943C288.984,53.78 285.713,56.152 281.034,57.699ZM267,56.293C269.372,56.293 271.294,54.371 271.294,51.999C271.294,49.627 269.372,47.705 267,47.705C264.628,47.705 262.706,49.627 262.706,51.999C262.706,54.371 264.628,56.293 267,56.293Z" style="fill:rgb(231,233,237);fill-rule:nonzero;"/>
                    <path d="M295,2L65,2C56.716,2 50,8.716 50,17L50,87C50,95.284 56.716,102 65,102L295,102C303.284,102 310,95.284 310,87L310,17C310,8.716 303.284,2 295,2Z" style="fill:none;fill-rule:nonzero;stroke:rgb(231,233,237);stroke-width:4px;"/>
                    <path d="M0,102C0,100.895 0.895,100 2,100L36,100C37.105,100 41,101.395 41,102.5C41,103.605 49.105,104 48,104L2,104C0.895,104 0,103.105 0,102Z" style="fill:rgb(231,233,237);fill-rule:nonzero;"/>
                    <path d="M48,88C48,94.627 42.627,100 36,100C36,102 36,102 36,104L66,104C66,102 64,101 60,100L56,100L56,97L52,97L52,88C50,88 50,88 48,88Z" style="fill:rgb(231,233,237);fill-rule:nonzero;"/>
                </g>
            </g>
        </g>
    </g>
    <g id="logo.svg2" serifId="logo.svg" transform="matrix(-1,-1.22465e-16,1.22465e-16,-1,159,365)">
        <g transform="matrix(1,0,0,1,-156,-52)">
            <clipPath id="_clip3">
                <rect x="0" y="0" width="312" height="104"/>
            </clipPath>
            <g clip-path="url(#_clip3)">
                <g>
                    <path d="M100.168,47.997C98.582,41.886 93.801,37.898 85.313,37.898C76.44,37.898 70.151,42.577 70.151,49.531C70.151,55.105 73.526,58.813 80.889,60.449L87.537,61.906C91.321,62.75 93.085,64.438 93.085,66.892C93.085,69.935 89.838,72.313 84.827,72.313C80.25,72.313 77.31,70.344 76.389,66.483L69,67.608C70.278,74.563 76.057,78.474 84.878,78.474C94.364,78.474 100.935,73.438 100.935,66.33C100.935,60.781 97.406,57.355 90.196,55.693L83.957,54.261C79.636,53.239 77.77,51.781 77.796,49.122C77.77,46.105 81.043,43.957 85.389,43.957C90.145,43.957 92.344,46.591 93.239,49.224L100.168,47.997Z" style="fill:rgb(231,233,237);fill-rule:nonzero;"/>
                    <path d="M127.673,38.409L119.619,38.409L119.619,29L111.974,29L111.974,38.409L106.221,38.409L106.221,44.545L111.974,44.545L111.974,67.736C111.948,74.869 117.394,78.321 123.428,78.193C125.857,78.168 127.494,77.707 128.388,77.375L127.008,71.06C126.496,71.162 125.55,71.392 124.323,71.392C121.843,71.392 119.619,70.574 119.619,66.151L119.619,44.545L127.673,44.545L127.673,38.409Z" style="fill:rgb(231,233,237);fill-rule:nonzero;"/>
                    <path d="M147.558,78.551C154.053,78.551 157.709,75.253 159.166,72.313L159.473,72.313L159.473,77.682L166.939,77.682L166.939,51.602C166.939,40.173 157.939,37.898 151.7,37.898C144.592,37.898 138.047,40.761 135.49,47.92L142.675,49.557C143.8,46.77 146.663,44.085 151.803,44.085C156.737,44.085 159.268,46.668 159.268,51.117L159.268,51.295C159.268,54.082 156.405,54.031 149.348,54.849C141.908,55.719 134.288,57.662 134.288,66.585C134.288,74.307 140.092,78.551 147.558,78.551ZM149.22,72.415C144.899,72.415 141.78,70.472 141.78,66.688C141.78,62.597 145.411,61.139 149.834,60.551C152.314,60.219 158.195,59.554 159.294,58.455L159.294,63.517C159.294,68.171 155.587,72.415 149.22,72.415Z" style="fill:rgb(231,233,237);fill-rule:nonzero;"/>
                    <path d="M177.121,77.682L184.766,77.682L184.766,53.699C184.766,48.56 188.729,44.852 194.15,44.852C195.735,44.852 197.525,45.134 198.138,45.313L198.138,38C197.371,37.898 195.863,37.821 194.891,37.821C190.289,37.821 186.352,40.429 184.92,44.648L184.511,44.648L184.511,38.409L177.121,38.409L177.121,77.682Z" style="fill:rgb(231,233,237);fill-rule:nonzero;"/>
                    <path d="M225.407,38.409L217.353,38.409L217.353,29L209.708,29L209.708,38.409L203.955,38.409L203.955,44.545L209.708,44.545L209.708,67.736C209.683,74.869 215.129,78.321 221.163,78.193C223.592,78.168 225.228,77.707 226.123,77.375L224.742,71.06C224.231,71.162 223.285,71.392 222.058,71.392C219.577,71.392 217.353,70.574 217.353,66.151L217.353,44.545L225.407,44.545L225.407,38.409Z" style="fill:rgb(231,233,237);fill-rule:nonzero;"/>
                    <path d="M282.206,44.611C281.7,44.443 281.194,44.283 280.688,44.133C280.772,43.786 280.847,43.44 280.922,43.093C282.075,37.505 281.316,33.015 278.756,31.533C276.291,30.118 272.269,31.59 268.2,35.133C267.797,35.48 267.403,35.846 267.028,36.211C266.775,35.968 266.512,35.724 266.25,35.49C261.984,31.702 257.709,30.108 255.15,31.599C252.694,33.024 251.962,37.252 252.994,42.539C253.097,43.065 253.209,43.58 253.341,44.105C252.741,44.274 252.15,44.461 251.597,44.658C246.591,46.393 243,49.13 243,51.961C243,54.886 246.825,57.821 252.028,59.602C252.45,59.743 252.872,59.883 253.303,60.005C253.163,60.568 253.041,61.121 252.928,61.693C251.944,66.896 252.713,71.021 255.169,72.436C257.7,73.899 261.956,72.399 266.1,68.771C266.428,68.48 266.756,68.18 267.084,67.861C267.497,68.265 267.928,68.649 268.359,69.024C272.372,72.474 276.338,73.871 278.784,72.455C281.316,70.993 282.141,66.558 281.072,61.158C280.988,60.746 280.894,60.324 280.791,59.893C281.091,59.808 281.381,59.715 281.672,59.621C287.081,57.83 291,54.933 291,51.961C291,49.121 287.306,46.365 282.206,44.611ZM269.522,36.652C273.009,33.615 276.263,32.424 277.744,33.277C279.328,34.186 279.937,37.861 278.944,42.69C278.878,43.008 278.813,43.318 278.728,43.627C276.647,43.158 274.537,42.821 272.419,42.633C271.2,40.89 269.869,39.221 268.425,37.655C268.791,37.308 269.147,36.98 269.522,36.652ZM258.675,56.827C259.153,57.643 259.641,58.458 260.156,59.255C258.694,59.096 257.241,58.861 255.806,58.552C256.219,57.202 256.734,55.805 257.334,54.38C257.766,55.205 258.206,56.021 258.675,56.827ZM255.834,45.549C257.184,45.249 258.619,45.005 260.109,44.818C259.612,45.596 259.125,46.393 258.666,47.199C258.206,47.996 257.756,48.811 257.334,49.636C256.744,48.24 256.247,46.871 255.834,45.549ZM258.403,52.008C259.022,50.715 259.697,49.449 260.409,48.202C261.122,46.955 261.891,45.746 262.697,44.555C264.103,44.452 265.537,44.396 267,44.396C268.463,44.396 269.906,44.452 271.303,44.555C272.1,45.736 272.859,46.946 273.581,48.183C274.303,49.421 274.978,50.686 275.616,51.971C274.987,53.265 274.312,54.539 273.591,55.796C272.878,57.043 272.119,58.252 271.322,59.452C269.925,59.555 268.472,59.602 267,59.602C265.528,59.602 264.103,59.555 262.725,59.471C261.909,58.28 261.141,57.061 260.419,55.815C259.697,54.568 259.031,53.302 258.403,52.008ZM275.334,56.808C275.812,55.983 276.263,55.149 276.703,54.305C277.303,55.664 277.828,57.043 278.287,58.458C276.834,58.786 275.362,59.039 273.881,59.208C274.387,58.421 274.866,57.615 275.334,56.808ZM276.684,49.636C276.244,48.811 275.794,47.986 275.325,47.18C274.866,46.383 274.388,45.596 273.891,44.818C275.4,45.005 276.844,45.258 278.194,45.568C277.762,46.955 277.256,48.305 276.684,49.636ZM267.019,39.09C268.003,40.158 268.931,41.283 269.794,42.446C267.937,42.361 266.072,42.361 264.216,42.446C265.134,41.236 266.081,40.111 267.019,39.09ZM256.144,33.343C257.719,32.424 261.216,33.736 264.9,36.999C265.134,37.205 265.369,37.43 265.612,37.655C264.159,39.221 262.819,40.89 261.591,42.633C259.472,42.821 257.372,43.149 255.291,43.608C255.169,43.13 255.066,42.643 254.962,42.155C254.081,37.618 254.662,34.196 256.144,33.343ZM253.847,58.055C253.453,57.943 253.069,57.821 252.684,57.69C250.688,57.061 248.419,56.068 246.778,54.765C245.831,54.108 245.194,53.096 245.016,51.961C245.016,50.246 247.978,48.052 252.253,46.561C252.787,46.374 253.331,46.205 253.875,46.046C254.513,48.08 255.281,50.077 256.172,52.008C255.272,53.968 254.494,55.993 253.847,58.055ZM264.778,67.243C263.231,68.658 261.441,69.783 259.491,70.552C258.45,71.049 257.25,71.096 256.181,70.674C254.691,69.811 254.072,66.502 254.916,62.049C255.019,61.524 255.131,60.999 255.263,60.483C257.363,60.933 259.481,61.243 261.628,61.402C262.866,63.155 264.225,64.833 265.678,66.408C265.378,66.699 265.078,66.98 264.778,67.243ZM267.075,64.965C266.119,63.933 265.162,62.789 264.234,61.561C265.134,61.599 266.062,61.618 267,61.618C267.966,61.618 268.912,61.599 269.85,61.552C268.987,62.743 268.059,63.877 267.075,64.965ZM279.328,67.777C279.244,68.921 278.681,69.99 277.781,70.711C276.291,71.574 273.113,70.449 269.681,67.505C269.288,67.168 268.894,66.802 268.491,66.427C269.925,64.843 271.247,63.164 272.447,61.402C274.594,61.224 276.731,60.896 278.841,60.418C278.934,60.802 279.019,61.186 279.094,61.561C279.553,63.586 279.628,65.696 279.328,67.777ZM281.034,57.699C280.772,57.783 280.509,57.868 280.238,57.943C279.581,55.899 278.775,53.902 277.847,51.961C278.747,50.049 279.506,48.08 280.144,46.065C280.631,46.205 281.1,46.355 281.55,46.505C285.919,48.005 288.984,50.236 288.984,51.943C288.984,53.78 285.713,56.152 281.034,57.699ZM267,56.293C269.372,56.293 271.294,54.371 271.294,51.999C271.294,49.627 269.372,47.705 267,47.705C264.628,47.705 262.706,49.627 262.706,51.999C262.706,54.371 264.628,56.293 267,56.293Z" style="fill:rgb(231,233,237);fill-rule:nonzero;"/>
                    <path d="M295,2L65,2C56.716,2 50,8.716 50,17L50,87C50,95.284 56.716,102 65,102L295,102C303.284,102 310,95.284 310,87L310,17C310,8.716 303.284,2 295,2Z" style="fill:none;fill-rule:nonzero;stroke:rgb(231,233,237);stroke-width:4px;"/>
                    <path d="M0,102C0,100.895 0.895,100 2,100L36,100C37.105,100 41,101.395 41,102.5C41,103.605 49.105,104 48,104L2,104C0.895,104 0,103.105 0,102Z" style="fill:rgb(231,233,237);fill-rule:nonzero;"/>
                    <path d="M48,88C48,94.627 42.627,100 36,100C36,102 36,102 36,104L66,104C66,102 64,101 60,100L56,100L56,97L52,97L52,88C50,88 50,88 48,88Z" style="fill:rgb(231,233,237);fill-rule:nonzero;"/>
                </g>
            </g>
        </g>
    </g>
    <g id="logo.svg3" serifId="logo.svg" transform="matrix(6.12323e-17,1,-1,6.12323e-17,363,469)">
        <g transform="matrix(1,0,0,1,-156,-52)">
            <clipPath id="_clip4">
                <rect x="0" y="0" width="312" height="104"/>
            </clipPath>
            <g clip-path="url(#_clip4)">
                <g>
                    <path d="M100.168,47.997C98.582,41.886 93.801,37.898 85.313,37.898C76.44,37.898 70.151,42.577 70.151,49.531C70.151,55.105 73.526,58.813 80.889,60.449L87.537,61.906C91.321,62.75 93.085,64.438 93.085,66.892C93.085,69.935 89.838,72.313 84.827,72.313C80.25,72.313 77.31,70.344 76.389,66.483L69,67.608C70.278,74.563 76.057,78.474 84.878,78.474C94.364,78.474 100.935,73.438 100.935,66.33C100.935,60.781 97.406,57.355 90.196,55.693L83.957,54.261C79.636,53.239 77.77,51.781 77.796,49.122C77.77,46.105 81.043,43.957 85.389,43.957C90.145,43.957 92.344,46.591 93.239,49.224L100.168,47.997Z" style="fill:rgb(231,233,237);fill-rule:nonzero;"/>
                    <path d="M127.673,38.409L119.619,38.409L119.619,29L111.974,29L111.974,38.409L106.221,38.409L106.221,44.545L111.974,44.545L111.974,67.736C111.948,74.869 117.394,78.321 123.428,78.193C125.857,78.168 127.494,77.707 128.388,77.375L127.008,71.06C126.496,71.162 125.55,71.392 124.323,71.392C121.843,71.392 119.619,70.574 119.619,66.151L119.619,44.545L127.673,44.545L127.673,38.409Z" style="fill:rgb(231,233,237);fill-rule:nonzero;"/>
                    <path d="M147.558,78.551C154.053,78.551 157.709,75.253 159.166,72.313L159.473,72.313L159.473,77.682L166.939,77.682L166.939,51.602C166.939,40.173 157.939,37.898 151.7,37.898C144.592,37.898 138.047,40.761 135.49,47.92L142.675,49.557C143.8,46.77 146.663,44.085 151.803,44.085C156.737,44.085 159.268,46.668 159.268,51.117L159.268,51.295C159.268,54.082 156.405,54.031 149.348,54.849C141.908,55.719 134.288,57.662 134.288,66.585C134.288,74.307 140.092,78.551 147.558,78.551ZM149.22,72.415C144.899,72.415 141.78,70.472 141.78,66.688C141.78,62.597 145.411,61.139 149.834,60.551C152.314,60.219 158.195,59.554 159.294,58.455L159.294,63.517C159.294,68.171 155.587,72.415 149.22,72.415Z" style="fill:rgb(231,233,237);fill-rule:nonzero;"/>
                    <path d="M177.121,77.682L184.766,77.682L184.766,53.699C184.766,48.56 188.729,44.852 194.15,44.852C195.735,44.852 197.525,45.134 198.138,45.313L198.138,38C197.371,37.898 195.863,37.821 194.891,37.821C190.289,37.821 186.352,40.429 184.92,44.648L184.511,44.648L184.511,38.409L177.121,38.409L177.121,77.682Z" style="fill:rgb(231,233,237);fill-rule:nonzero;"/>
                    <path d="M225.407,38.409L217.353,38.409L217.353,29L209.708,29L209.708,38.409L203.955,38.409L203.955,44.545L209.708,44.545L209.708,67.736C209.683,74.869 215.129,78.321 221.163,78.193C223.592,78.168 225.228,77.707 226.123,77.375L224.742,71.06C224.231,71.162 223.285,71.392 222.058,71.392C219.577,71.392 217.353,70.574 217.353,66.151L217.353,44.545L225.407,44.545L225.407,38.409Z" style="fill:rgb(231,233,237);fill-rule:nonzero;"/>
                    <path d="M282.206,44.611C281.7,44.443 281.194,44.283 280.688,44.133C280.772,43.786 280.847,43.44 280.922,43.093C282.075,37.505 281.316,33.015 278.756,31.533C276.291,30.118 272.269,31.59 268.2,35.133C267.797,35.48 267.403,35.846 267.028,36.211C266.775,35.968 266.512,35.724 266.25,35.49C261.984,31.702 257.709,30.108 255.15,31.599C252.694,33.024 251.962,37.252 252.994,42.539C253.097,43.065 253.209,43.58 253.341,44.105C252.741,44.274 252.15,44.461 251.597,44.658C246.591,46.393 243,49.13 243,51.961C243,54.886 246.825,57.821 252.028,59.602C252.45,59.743 252.872,59.883 253.303,60.005C253.163,60.568 253.041,61.121 252.928,61.693C251.944,66.896 252.713,71.021 255.169,72.436C257.7,73.899 261.956,72.399 266.1,68.771C266.428,68.48 266.756,68.18 267.084,67.861C267.497,68.265 267.928,68.649 268.359,69.024C272.372,72.474 276.338,73.871 278.784,72.455C281.316,70.993 282.141,66.558 281.072,61.158C280.988,60.746 280.894,60.324 280.791,59.893C281.091,59.808 281.381,59.715 281.672,59.621C287.081,57.83 291,54.933 291,51.961C291,49.121 287.306,46.365 282.206,44.611ZM269.522,36.652C273.009,33.615 276.263,32.424 277.744,33.277C279.328,34.186 279.937,37.861 278.944,42.69C278.878,43.008 278.813,43.318 278.728,43.627C276.647,43.158 274.537,42.821 272.419,42.633C271.2,40.89 269.869,39.221 268.425,37.655C268.791,37.308 269.147,36.98 269.522,36.652ZM258.675,56.827C259.153,57.643 259.641,58.458 260.156,59.255C258.694,59.096 257.241,58.861 255.806,58.552C256.219,57.202 256.734,55.805 257.334,54.38C257.766,55.205 258.206,56.021 258.675,56.827ZM255.834,45.549C257.184,45.249 258.619,45.005 260.109,44.818C259.612,45.596 259.125,46.393 258.666,47.199C258.206,47.996 257.756,48.811 257.334,49.636C256.744,48.24 256.247,46.871 255.834,45.549ZM258.403,52.008C259.022,50.715 259.697,49.449 260.409,48.202C261.122,46.955 261.891,45.746 262.697,44.555C264.103,44.452 265.537,44.396 267,44.396C268.463,44.396 269.906,44.452 271.303,44.555C272.1,45.736 272.859,46.946 273.581,48.183C274.303,49.421 274.978,50.686 275.616,51.971C274.987,53.265 274.312,54.539 273.591,55.796C272.878,57.043 272.119,58.252 271.322,59.452C269.925,59.555 268.472,59.602 267,59.602C265.528,59.602 264.103,59.555 262.725,59.471C261.909,58.28 261.141,57.061 260.419,55.815C259.697,54.568 259.031,53.302 258.403,52.008ZM275.334,56.808C275.812,55.983 276.263,55.149 276.703,54.305C277.303,55.664 277.828,57.043 278.287,58.458C276.834,58.786 275.362,59.039 273.881,59.208C274.387,58.421 274.866,57.615 275.334,56.808ZM276.684,49.636C276.244,48.811 275.794,47.986 275.325,47.18C274.866,46.383 274.388,45.596 273.891,44.818C275.4,45.005 276.844,45.258 278.194,45.568C277.762,46.955 277.256,48.305 276.684,49.636ZM267.019,39.09C268.003,40.158 268.931,41.283 269.794,42.446C267.937,42.361 266.072,42.361 264.216,42.446C265.134,41.236 266.081,40.111 267.019,39.09ZM256.144,33.343C257.719,32.424 261.216,33.736 264.9,36.999C265.134,37.205 265.369,37.43 265.612,37.655C264.159,39.221 262.819,40.89 261.591,42.633C259.472,42.821 257.372,43.149 255.291,43.608C255.169,43.13 255.066,42.643 254.962,42.155C254.081,37.618 254.662,34.196 256.144,33.343ZM253.847,58.055C253.453,57.943 253.069,57.821 252.684,57.69C250.688,57.061 248.419,56.068 246.778,54.765C245.831,54.108 245.194,53.096 245.016,51.961C245.016,50.246 247.978,48.052 252.253,46.561C252.787,46.374 253.331,46.205 253.875,46.046C254.513,48.08 255.281,50.077 256.172,52.008C255.272,53.968 254.494,55.993 253.847,58.055ZM264.778,67.243C263.231,68.658 261.441,69.783 259.491,70.552C258.45,71.049 257.25,71.096 256.181,70.674C254.691,69.811 254.072,66.502 254.916,62.049C255.019,61.524 255.131,60.999 255.263,60.483C257.363,60.933 259.481,61.243 261.628,61.402C262.866,63.155 264.225,64.833 265.678,66.408C265.378,66.699 265.078,66.98 264.778,67.243ZM267.075,64.965C266.119,63.933 265.162,62.789 264.234,61.561C265.134,61.599 266.062,61.618 267,61.618C267.966,61.618 268.912,61.599 269.85,61.552C268.987,62.743 268.059,63.877 267.075,64.965ZM279.328,67.777C279.244,68.921 278.681,69.99 277.781,70.711C276.291,71.574 273.113,70.449 269.681,67.505C269.288,67.168 268.894,66.802 268.491,66.427C269.925,64.843 271.247,63.164 272.447,61.402C274.594,61.224 276.731,60.896 278.841,60.418C278.934,60.802 279.019,61.186 279.094,61.561C279.553,63.586 279.628,65.696 279.328,67.777ZM281.034,57.699C280.772,57.783 280.509,57.868 280.238,57.943C279.581,55.899 278.775,53.902 277.847,51.961C278.747,50.049 279.506,48.08 280.144,46.065C280.631,46.205 281.1,46.355 281.55,46.505C285.919,48.005 288.984,50.236 288.984,51.943C288.984,53.78 285.713,56.152 281.034,57.699ZM267,56.293C269.372,56.293 271.294,54.371 271.294,51.999C271.294,49.627 269.372,47.705 267,47.705C264.628,47.705 262.706,49.627 262.706,51.999C262.706,54.371 264.628,56.293 267,56.293Z" style="fill:rgb(231,233,237);fill-rule:nonzero;"/>
                    <path d="M295,2L65,2C56.716,2 50,8.716 50,17L50,87C50,95.284 56.716,102 65,102L295,102C303.284,102 310,95.284 310,87L310,17C310,8.716 303.284,2 295,2Z" style="fill:none;fill-rule:nonzero;stroke:rgb(231,233,237);stroke-width:4px;"/>
                    <path d="M0,102C0,100.895 0.895,100 2,100L36,100C37.105,100 41,101.395 41,102.5C41,103.605 49.105,104 48,104L2,104C0.895,104 0,103.105 0,102Z" style="fill:rgb(231,233,237);fill-rule:nonzero;"/>
                    <path d="M48,88C48,94.627 42.627,100 36,100C36,102 36,102 36,104L66,104C66,102 64,101 60,100L56,100L56,97L52,97L52,88C50,88 50,88 48,88Z" style="fill:rgb(231,233,237);fill-rule:nonzero;"/>
                </g>
            </g>
        </g>
    </g>
</svg>
